<svg viewBox="0 0 760 120" xmlns="http://www.w3.org/2000/svg" font-family="-apple-system, BlinkMacSystemFont, 'Segoe UI', sans-serif">
  <defs>
    <marker id="arr" viewBox="0 0 10 10" refX="9" refY="5" markerWidth="7" markerHeight="7" orient="auto">
      <path d="M0,0 L10,5 L0,10 z" fill="#94a3b8"/>
    </marker>
  </defs>

  <rect x="10" y="20" width="158" height="76" rx="10" fill="#f8fafc" stroke="#94a3b8" stroke-width="2"/>
  <text x="89" y="50" text-anchor="middle" font-size="13" font-weight="700" fill="#475569">New</text>
  <text x="89" y="70" text-anchor="middle" font-size="11" fill="#64748b">Never encountered</text>
  <text x="89" y="86" text-anchor="middle" font-size="11" fill="#64748b">this feature</text>

  <line x1="168" y1="58" x2="198" y2="58" stroke="#94a3b8" stroke-width="2" marker-end="url(#arr)"/>

  <rect x="202" y="20" width="158" height="76" rx="10" fill="#eff6ff" stroke="#3b82f6" stroke-width="2"/>
  <text x="281" y="50" text-anchor="middle" font-size="13" font-weight="700" fill="#1e3a8a">Discovering</text>
  <text x="281" y="70" text-anchor="middle" font-size="11" fill="#2563eb">Has visited and</text>
  <text x="281" y="86" text-anchor="middle" font-size="11" fill="#2563eb">started to explore</text>

  <line x1="360" y1="58" x2="390" y2="58" stroke="#94a3b8" stroke-width="2" marker-end="url(#arr)"/>

  <rect x="394" y="20" width="158" height="76" rx="10" fill="#ecfdf5" stroke="#059669" stroke-width="2"/>
  <text x="473" y="50" text-anchor="middle" font-size="13" font-weight="700" fill="#064e3b">Familiar</text>
  <text x="473" y="70" text-anchor="middle" font-size="11" fill="#059669">Has learned and</text>
  <text x="473" y="86" text-anchor="middle" font-size="11" fill="#059669">practiced the feature</text>

  <line x1="552" y1="58" x2="582" y2="58" stroke="#94a3b8" stroke-width="2" marker-end="url(#arr)"/>

  <rect x="586" y="20" width="164" height="76" rx="10" fill="#f5f3ff" stroke="#7c3aed" stroke-width="2"/>
  <text x="668" y="50" text-anchor="middle" font-size="13" font-weight="700" fill="#4c1d95">Fluent</text>
  <text x="668" y="70" text-anchor="middle" font-size="11" fill="#6d28d9">Uses it independently</text>
  <text x="668" y="86" text-anchor="middle" font-size="11" fill="#6d28d9">without assistance</text>

</svg>
