<svg viewBox="0 0 760 340" xmlns="http://www.w3.org/2000/svg" font-family="-apple-system, BlinkMacSystemFont, 'Segoe UI', sans-serif">
  <defs>
    <marker id="arrowKg" viewBox="0 0 10 10" refX="9" refY="5" markerWidth="7" markerHeight="7" orient="auto">
      <path d="M0,0 L10,5 L0,10 z" fill="#5B3FE8"/>
    </marker>
  </defs>

  <text x="380" y="28" text-anchor="middle" font-size="13" font-weight="700" fill="#64748b" letter-spacing="2">SUBJECT → PREDICATE → OBJECT</text>

  <!-- Row 1 -->
  <rect x="20" y="48" width="190" height="44" rx="8" fill="#eff6ff" stroke="#3b82f6" stroke-width="1.5"/>
  <text x="115" y="75" text-anchor="middle" font-size="13" font-weight="600" fill="#1e3a8a">Invoice Page</text>

  <line x1="210" y1="70" x2="330" y2="70" stroke="#5B3FE8" stroke-width="1.5" marker-end="url(#arrowKg)"/>
  <text x="270" y="62" text-anchor="middle" font-size="10" fill="#7c3aed" font-style="italic">navigates_to</text>

  <rect x="335" y="48" width="200" height="44" rx="8" fill="#f0fdf4" stroke="#22c55e" stroke-width="1.5"/>
  <text x="435" y="75" text-anchor="middle" font-size="13" font-weight="600" fill="#166534">/invoices/new</text>

  <!-- Row 2 -->
  <rect x="20" y="118" width="190" height="44" rx="8" fill="#eff6ff" stroke="#3b82f6" stroke-width="1.5"/>
  <text x="115" y="145" text-anchor="middle" font-size="13" font-weight="600" fill="#1e3a8a">Delete Button</text>

  <line x1="210" y1="140" x2="330" y2="140" stroke="#5B3FE8" stroke-width="1.5" marker-end="url(#arrowKg)"/>
  <text x="270" y="132" text-anchor="middle" font-size="10" fill="#7c3aed" font-style="italic">requires_role</text>

  <rect x="335" y="118" width="200" height="44" rx="8" fill="#f0fdf4" stroke="#22c55e" stroke-width="1.5"/>
  <text x="435" y="145" text-anchor="middle" font-size="13" font-weight="600" fill="#166534">Admin</text>

  <!-- Row 3 -->
  <rect x="20" y="188" width="190" height="44" rx="8" fill="#eff6ff" stroke="#3b82f6" stroke-width="1.5"/>
  <text x="115" y="215" text-anchor="middle" font-size="13" font-weight="600" fill="#1e3a8a">Deal</text>

  <line x1="210" y1="210" x2="330" y2="210" stroke="#5B3FE8" stroke-width="1.5" marker-end="url(#arrowKg)"/>
  <text x="270" y="202" text-anchor="middle" font-size="10" fill="#7c3aed" font-style="italic">belongs_to</text>

  <rect x="335" y="188" width="200" height="44" rx="8" fill="#f0fdf4" stroke="#22c55e" stroke-width="1.5"/>
  <text x="435" y="215" text-anchor="middle" font-size="13" font-weight="600" fill="#166534">Pipeline</text>

  <!-- Row 4 -->
  <rect x="20" y="258" width="190" height="44" rx="8" fill="#eff6ff" stroke="#3b82f6" stroke-width="1.5"/>
  <text x="115" y="285" text-anchor="middle" font-size="13" font-weight="600" fill="#1e3a8a">Create Invoice</text>

  <line x1="210" y1="280" x2="330" y2="280" stroke="#5B3FE8" stroke-width="1.5" marker-end="url(#arrowKg)"/>
  <text x="270" y="272" text-anchor="middle" font-size="10" fill="#7c3aed" font-style="italic">requires</text>

  <rect x="335" y="258" width="200" height="44" rx="8" fill="#f0fdf4" stroke="#22c55e" stroke-width="1.5"/>
  <text x="435" y="285" text-anchor="middle" font-size="13" font-weight="600" fill="#166534">Contact</text>

  <!-- Source tags on right -->
  <text x="570" y="75" font-size="10" fill="#94a3b8">source: probe</text>
  <text x="570" y="145" font-size="10" fill="#94a3b8">source: code</text>
  <text x="570" y="215" font-size="10" fill="#94a3b8">source: probe</text>
  <text x="570" y="285" font-size="10" fill="#94a3b8">source: chat</text>

  <text x="570" y="90" font-size="10" fill="#94a3b8">confidence: 0.95</text>
  <text x="570" y="160" font-size="10" fill="#94a3b8">confidence: 0.98</text>
  <text x="570" y="230" font-size="10" fill="#94a3b8">confidence: 0.92</text>
  <text x="570" y="300" font-size="10" fill="#94a3b8">confidence: 0.90</text>

</svg>
